@startuml
IBoardState <|.. BoardState
IBoardState <-- Board
BoardState *-- Piece
BoardState *-- Turn
BoardStateListener <|.. Presenter
BoardStateListener <-- Board
Board <-- Presenter
iPresenter <|.. Presenter
iPresenter <-- view
iView <-- Presenter
iView <|.. view

class Board {
    + initBoard()
    + getTurn(): Turn
    + putPiece(row: Row, col: Col)
    + checkPuttablePosition(row: Row, col: Col): Boolean
    + checkPuttablePosition(): List<Piece>
    + countBlackPiece(): Int
    + countWhitePiece(): Int
    - setTurn(turn: Turn)
}

class BoardState {
    - pieces: List<Piece>
    - turn: Turn
}

interface IBoardState {
    + getPieces(): List<Piece>
    + getTurn(): Turn
}

enum Turn {
    + BLACK
    + WHITE
}

interface BoardStateListener {
    + puttedPiece(piece: Piece)
    + reversedPiece(piece: Piece)
    + nextTurn(turn: Turn)
    + pass()
    + finishGame()
}

class Piece {
    - Turn status
    - int Row
    - int Col
    + reversePiece()
}

interface iPresenter {
    + onStart()
    + onClickPauseButton()
    + onClickBoardPosition(row: Row, col: Col)
}

class view {}

interface iView {
    showPutPiece(row: Row, col: Col, color: Turn)
    showReversePiece(row: Row, col: Col, color: Turn)
    showWhiteCount(n: Int)
    showBlackCount(n: Int)
    showPause()
    showPass()
    showTurn(color: Turn)
    showResult(winner: Turn)
    throwErrorText(text: String)
}
class Presenter {

}
@enduml
